<svg xmlns="http://www.w3.org/2000/svg" xmlns:xlink="http://www.w3.org/1999/xlink" width="1820.769" height="360.586" viewBox="0 0 1820.769 360.586">
  <defs>
    <linearGradient id="linear-gradient" x1="-0.107" y1="2.317" x2="1.092" y2="-1.228" gradientUnits="objectBoundingBox">
      <stop offset="0" stop-color="#f9d749"/>
      <stop offset="1" stop-color="#ede9ca"/>
    </linearGradient>
  </defs>
  <g id="Logo" transform="translate(-167.3 -375.3)">
    <path id="Path_26" data-name="Path 26" d="M-711.184-28.74h122.963q14.918,0,21.7,3.391a17.142,17.142,0,0,1,9.041,10.624q2.26,7.233,2.26,19.213T-557.48,23.7q-2.26,7.233-7.685,9.946-8.589,4.521-23.508,4.521H-751.418q-31.645,0-37.07-17.179Q-791.2,13.755-791.2-2.068v-251.35a131.34,131.34,0,0,1,.678-15.6,36.219,36.219,0,0,1,4.295-11.98Q-779.9-293.2-750.966-293.2q31.645,0,37.522,16.727,2.26,7.685,2.26,23.508Zm317.8-171.334q45.207,0,75.269,34.583t30.063,84.311V-1.616a131.331,131.331,0,0,1-.678,15.6,36.924,36.924,0,0,1-3.843,11.528q-6.329,12.206-35.261,12.206-32.1,0-37.07-16.727-2.712-7.685-2.712-23.056V-81.632q0-18.535-10.624-28.932t-28.48-10.4q-17.857,0-28.932,10.85t-11.076,28.48V-1.616a131.325,131.325,0,0,1-.678,15.6A32.145,32.145,0,0,1-451.7,25.509q-5.877,12.206-34.809,12.206-28.48,0-34.809-12.206a41.9,41.9,0,0,1-3.843-11.98,131.338,131.338,0,0,1-.678-15.6V-162.1a126.15,126.15,0,0,1,.678-15.144,32.144,32.144,0,0,1,4.295-11.528q6.329-11.3,34.809-11.3,27.576,0,33.905,10.4,4.521,7.685,4.521,18.535,1.808-3.164,8.137-9.041a79.289,79.289,0,0,1,12.206-9.493A59.217,59.217,0,0,1-393.379-200.074ZM-132.988-41.4h77.3q18.083,0,25.994,4.521a22.393,22.393,0,0,1,10.624,13.11q2.712,8.589,2.712,22.6t-2.712,22.6q-2.712,8.589-9.493,11.98a38.782,38.782,0,0,1-11.98,4.069,131.329,131.329,0,0,1-15.6.678h-163.2q-15.822,0-27.576-11.754A38.265,38.265,0,0,1-258.663-1.616a37.527,37.527,0,0,1,11.754-27.8q11.754-11.528,36.165-33.227t44.3-39.1q19.891-17.4,21.7-19.213h-63.742q-25.768,0-32.549-8.589-7.685-9.946-7.685-26.22t2.26-24.186q2.26-7.911,5.425-11.754a21.305,21.305,0,0,1,9.041-6.1q7.685-2.26,23.508-2.26H-61.561a38.5,38.5,0,0,1,27.576,11.3q11.754,11.3,11.754,28.254t-13.562,30.063Q-49.355-117.345-132.988-41.4Zm300.626-133.36q2.712-25.316,35.713-25.316,17.631,0,26.22,2.712t11.98,9.493a38.783,38.783,0,0,1,4.069,11.98,131.332,131.332,0,0,1,.678,15.6V-2.068a131.331,131.331,0,0,1-.678,15.6,41.9,41.9,0,0,1-3.843,11.98q-6.329,11.754-30.967,11.754t-33-6.1q-8.363-6.1-9.719-17.857-16.727,23.96-55.831,23.96T39.7,1.549Q6.249-34.165,6.249-81.406t33.679-82.729q33.679-35.487,73.913-35.487A70.436,70.436,0,0,1,141.87-194.2q12.658,5.425,17.631,10.172A62.827,62.827,0,0,1,167.638-174.758ZM85.361-80.728q0,14.918,11.754,26.9A38.421,38.421,0,0,0,125.6-41.85a35.959,35.959,0,0,0,27.8-12.206q11.076-12.206,11.076-26.9T153.85-108.3q-10.624-12.658-28.48-12.658T96.437-108.3Q85.361-95.646,85.361-80.728Zm267.173,44.3q7.685,7.685,7.685,31.645v1.808a136.647,136.647,0,0,1-.678,16.048q-.678,5.2-4.747,12.432-6.781,13.11-34.131,13.11T284.5,30.029q-8.815-8.589-8.815-32.549V-4.328a137.528,137.528,0,0,1,.678-15.822,36.077,36.077,0,0,1,4.295-12.206q6.781-13.562,34.131-13.562T352.534-36.425Zm114.826-132q21.247-32.1,51.084-32.1,46.111,0,68.714,39.33a154.344,154.344,0,0,1,11.98-14.24q7.007-7.459,22.377-16.274a62.833,62.833,0,0,1,31.645-8.815q36.166,0,60.577,27.8t24.412,92V-1.616a131.309,131.309,0,0,1-.678,15.6,36.217,36.217,0,0,1-4.295,11.98Q727.3,38.166,698.367,38.166q-28.48,0-34.809-12.658a41.9,41.9,0,0,1-3.843-11.98,131.338,131.338,0,0,1-.678-15.6V-81.18q0-39.33-28.028-39.33-15.822,0-21.473,10.4t-5.651,29.384V-1.616a130.5,130.5,0,0,1-.678,15.822,36.443,36.443,0,0,1-4.295,11.754q-6.329,12.206-35.261,12.206-28.48,0-34.809-12.658A41.9,41.9,0,0,1,525,13.529a131.325,131.325,0,0,1-.678-15.6V-81.18q0-39.33-28.028-39.33-27.124,0-27.124,39.33V-1.164a131.323,131.323,0,0,1-.678,15.6,36.219,36.219,0,0,1-4.295,11.98q-6.781,11.754-35.261,11.754T394.125,25.961a42.243,42.243,0,0,1-3.843-11.754A130.5,130.5,0,0,1,389.6-1.616V-160.744a131.323,131.323,0,0,1,.678-15.6,32.144,32.144,0,0,1,4.295-11.528q6.781-12.206,32.1-12.206t33,8.137Q467.36-183.8,467.36-168.429Zm536.606,59.221q0,27.576-13.788,40.912T959.662-54.96H852.522q0,12.658,14.918,21.247t29.836,8.589q26.22,0,41.138-5.425l4.973-1.808q10.85-4.973,18.083-4.973,14.466,0,24.864,20.343,5.877,12.206,5.877,20.8,0,40.234-96.291,40.234-33.453,0-59.447-11.528T796.014,2q-28.48-36.618-28.48-81.824,0-56.961,36.844-91.092t92-34.131q62.838,0,92.222,44.3A92.263,92.263,0,0,1,1003.965-109.208ZM908.579-96.1q17.179,0,17.179-14.466a20.363,20.363,0,0,0-7.911-16.727q-7.911-6.329-22.6-6.329t-29.158,11.98Q851.618-109.66,851.618-96.1Z" transform="translate(960 690.343)" fill="none" stroke="#fff" stroke-width="3"/>
    <path id="Path_27" data-name="Path 27" d="M-711.184-28.74h122.963q14.918,0,21.7,3.391a17.142,17.142,0,0,1,9.041,10.624q2.26,7.233,2.26,19.213T-557.48,23.7q-2.26,7.233-7.685,9.946-8.589,4.521-23.508,4.521H-751.418q-31.645,0-37.07-17.179Q-791.2,13.755-791.2-2.068v-251.35a131.34,131.34,0,0,1,.678-15.6,36.219,36.219,0,0,1,4.295-11.98Q-779.9-293.2-750.966-293.2q31.645,0,37.522,16.727,2.26,7.685,2.26,23.508Zm317.8-171.334q45.207,0,75.269,34.583t30.063,84.311V-1.616a131.331,131.331,0,0,1-.678,15.6,36.924,36.924,0,0,1-3.843,11.528q-6.329,12.206-35.261,12.206-32.1,0-37.07-16.727-2.712-7.685-2.712-23.056V-81.632q0-18.535-10.624-28.932t-28.48-10.4q-17.857,0-28.932,10.85t-11.076,28.48V-1.616a131.325,131.325,0,0,1-.678,15.6A32.145,32.145,0,0,1-451.7,25.509q-5.877,12.206-34.809,12.206-28.48,0-34.809-12.206a41.9,41.9,0,0,1-3.843-11.98,131.338,131.338,0,0,1-.678-15.6V-162.1a126.15,126.15,0,0,1,.678-15.144,32.144,32.144,0,0,1,4.295-11.528q6.329-11.3,34.809-11.3,27.576,0,33.905,10.4,4.521,7.685,4.521,18.535,1.808-3.164,8.137-9.041a79.289,79.289,0,0,1,12.206-9.493A59.217,59.217,0,0,1-393.379-200.074ZM-132.988-41.4h77.3q18.083,0,25.994,4.521a22.393,22.393,0,0,1,10.624,13.11q2.712,8.589,2.712,22.6t-2.712,22.6q-2.712,8.589-9.493,11.98a38.782,38.782,0,0,1-11.98,4.069,131.329,131.329,0,0,1-15.6.678h-163.2q-15.822,0-27.576-11.754A38.265,38.265,0,0,1-258.663-1.616a37.527,37.527,0,0,1,11.754-27.8q11.754-11.528,36.165-33.227t44.3-39.1q19.891-17.4,21.7-19.213h-63.742q-25.768,0-32.549-8.589-7.685-9.946-7.685-26.22t2.26-24.186q2.26-7.911,5.425-11.754a21.305,21.305,0,0,1,9.041-6.1q7.685-2.26,23.508-2.26H-61.561a38.5,38.5,0,0,1,27.576,11.3q11.754,11.3,11.754,28.254t-13.562,30.063Q-49.355-117.345-132.988-41.4Zm300.626-133.36q2.712-25.316,35.713-25.316,17.631,0,26.22,2.712t11.98,9.493a38.783,38.783,0,0,1,4.069,11.98,131.332,131.332,0,0,1,.678,15.6V-2.068a131.331,131.331,0,0,1-.678,15.6,41.9,41.9,0,0,1-3.843,11.98q-6.329,11.754-30.967,11.754t-33-6.1q-8.363-6.1-9.719-17.857-16.727,23.96-55.831,23.96T39.7,1.549Q6.249-34.165,6.249-81.406t33.679-82.729q33.679-35.487,73.913-35.487A70.436,70.436,0,0,1,141.87-194.2q12.658,5.425,17.631,10.172A62.827,62.827,0,0,1,167.638-174.758ZM85.361-80.728q0,14.918,11.754,26.9A38.421,38.421,0,0,0,125.6-41.85a35.959,35.959,0,0,0,27.8-12.206q11.076-12.206,11.076-26.9T153.85-108.3q-10.624-12.658-28.48-12.658T96.437-108.3Q85.361-95.646,85.361-80.728Zm267.173,44.3q7.685,7.685,7.685,31.645v1.808a136.647,136.647,0,0,1-.678,16.048q-.678,5.2-4.747,12.432-6.781,13.11-34.131,13.11T284.5,30.029q-8.815-8.589-8.815-32.549V-4.328a137.528,137.528,0,0,1,.678-15.822,36.077,36.077,0,0,1,4.295-12.206q6.781-13.562,34.131-13.562T352.534-36.425Zm114.826-132q21.247-32.1,51.084-32.1,46.111,0,68.714,39.33a154.344,154.344,0,0,1,11.98-14.24q7.007-7.459,22.377-16.274a62.833,62.833,0,0,1,31.645-8.815q36.166,0,60.577,27.8t24.412,92V-1.616a131.309,131.309,0,0,1-.678,15.6,36.217,36.217,0,0,1-4.295,11.98Q727.3,38.166,698.367,38.166q-28.48,0-34.809-12.658a41.9,41.9,0,0,1-3.843-11.98,131.338,131.338,0,0,1-.678-15.6V-81.18q0-39.33-28.028-39.33-15.822,0-21.473,10.4t-5.651,29.384V-1.616a130.5,130.5,0,0,1-.678,15.822,36.443,36.443,0,0,1-4.295,11.754q-6.329,12.206-35.261,12.206-28.48,0-34.809-12.658A41.9,41.9,0,0,1,525,13.529a131.325,131.325,0,0,1-.678-15.6V-81.18q0-39.33-28.028-39.33-27.124,0-27.124,39.33V-1.164a131.323,131.323,0,0,1-.678,15.6,36.219,36.219,0,0,1-4.295,11.98q-6.781,11.754-35.261,11.754T394.125,25.961a42.243,42.243,0,0,1-3.843-11.754A130.5,130.5,0,0,1,389.6-1.616V-160.744a131.323,131.323,0,0,1,.678-15.6,32.144,32.144,0,0,1,4.295-11.528q6.781-12.206,32.1-12.206t33,8.137Q467.36-183.8,467.36-168.429Zm536.606,59.221q0,27.576-13.788,40.912T959.662-54.96H852.522q0,12.658,14.918,21.247t29.836,8.589q26.22,0,41.138-5.425l4.973-1.808q10.85-4.973,18.083-4.973,14.466,0,24.864,20.343,5.877,12.206,5.877,20.8,0,40.234-96.291,40.234-33.453,0-59.447-11.528T796.014,2q-28.48-36.618-28.48-81.824,0-56.961,36.844-91.092t92-34.131q62.838,0,92.222,44.3A92.263,92.263,0,0,1,1003.965-109.208ZM908.579-96.1q17.179,0,17.179-14.466a20.363,20.363,0,0,0-7.911-16.727q-7.911-6.329-22.6-6.329t-29.158,11.98Q851.618-109.66,851.618-96.1Z" transform="translate(982.603 670)" stroke="#fff" stroke-width="3" fill="url(#linear-gradient)"/>
  </g>
</svg>
